HIERARCHY
ROOT SimulationBone
{
	OFFSET 0.000000 0.000000 0.000000
	CHANNELS 6 Xposition Yposition Zposition Zrotation Yrotation Xrotation 
	JOINT Hips
	{
		OFFSET 0.000000 0.000000 0.000000
		CHANNELS 6 Xposition Yposition Zposition Zrotation Yrotation Xrotation 
		JOINT LeftUpLeg
		{
			OFFSET 0.103455 1.857829 10.548506
			CHANNELS 3 Zrotation Yrotation Xrotation
			JOINT LeftLeg
			{
				OFFSET 43.499996 -0.000034 0.000000
				CHANNELS 3 Zrotation Yrotation Xrotation
				JOINT LeftFoot
				{
					OFFSET 42.372192 0.000015 -0.000006
					CHANNELS 3 Zrotation Yrotation Xrotation
					JOINT LeftToe
					{
						OFFSET 17.299999 -0.000000 -0.000002
						CHANNELS 3 Zrotation Yrotation Xrotation
						End Site
						{
							OFFSET 0.000000 0.000000 0.000000
						}
					}
				}
			}
		}
		JOINT RightUpLeg
		{
			OFFSET 0.103461 1.857828 -10.548504
			CHANNELS 3 Zrotation Yrotation Xrotation
			JOINT RightLeg
			{
				OFFSET 43.500038 -0.000027 0.000010
				CHANNELS 3 Zrotation Yrotation Xrotation
				JOINT RightFoot
				{
					OFFSET 42.372265 -0.000004 0.000015
					CHANNELS 3 Zrotation Yrotation Xrotation
					JOINT RightToe
					{
						OFFSET 17.299992 -0.000005 0.000008
						CHANNELS 3 Zrotation Yrotation Xrotation
						End Site
						{
							OFFSET 0.000000 0.000000 0.000000
						}
					}
				}
			}
		}
		JOINT Spine
		{
			OFFSET 6.901968 -2.603732 0.000000
			CHANNELS 3 Zrotation Yrotation Xrotation
			JOINT Spine1
			{
				OFFSET 12.588099 -0.000001 0.000001
				CHANNELS 3 Zrotation Yrotation Xrotation
				JOINT Spine2
				{
					OFFSET 12.343203 -0.000001 -0.000000
					CHANNELS 3 Zrotation Yrotation Xrotation
					JOINT Neck
					{
						OFFSET 25.832890 -0.000002 0.000001
						CHANNELS 3 Zrotation Yrotation Xrotation
						JOINT Head
						{
							OFFSET 11.766614 0.000006 0.000000
							CHANNELS 3 Zrotation Yrotation Xrotation
							End Site
							{
								OFFSET 0.000000 0.000000 0.000000
							}
						}
					}
					JOINT LeftShoulder
					{
						OFFSET 19.745895 -1.480368 6.000105
						CHANNELS 3 Zrotation Yrotation Xrotation
						JOINT LeftArm
						{
							OFFSET 11.284125 -0.000008 -0.000020
							CHANNELS 3 Zrotation Yrotation Xrotation
							JOINT LeftForeArm
							{
								OFFSET 33.000050 0.000002 0.000037
								CHANNELS 3 Zrotation Yrotation Xrotation
								JOINT LeftHand
								{
									OFFSET 25.200003 0.000015 -0.000001
									CHANNELS 3 Zrotation Yrotation Xrotation
									End Site
									{
										OFFSET 0.000000 0.000000 0.000000
									}
								}
							}
						}
					}
					JOINT RightShoulder
					{
						OFFSET 19.746092 -1.480371 -6.000073
						CHANNELS 3 Zrotation Yrotation Xrotation
						JOINT RightArm
						{
							OFFSET 11.284139 -0.000016 -0.000008
							CHANNELS 3 Zrotation Yrotation Xrotation
							JOINT RightForeArm
							{
								OFFSET 33.000092 0.000014 0.000002
								CHANNELS 3 Zrotation Yrotation Xrotation
								JOINT RightHand
								{
									OFFSET 25.199774 0.000137 0.000428
									CHANNELS 3 Zrotation Yrotation Xrotation
									End Site
									{
										OFFSET 0.000000 0.000000 0.000000
									}
								}
							}
						}
					}
				}
			}
		}
	}
}
MOTION
Frames: 9
Frame Time: 0.016667
24.360385 0.000000 131.169566 0.000000 100.740394 0.000000 0.648775 91.799373 -1.938521 96.004621 -0.333895 179.396657 -175.381098 -14.904565 172.879843 -49.027034 1.648652 0.282082 77.200563 -5.028571 -17.363225 21.454547 0.003082 0.000001 170.012148 2.562423 -174.571148 -27.267999 4.914904 17.875228 77.944958 -11.516766 4.872529 21.454558 -0.003114 -0.000018 8.667430 2.013909 -1.252745 7.284020 4.102380 -2.377924 6.965341 4.088085 -2.402666 -2.225885 4.417651 13.423554 -9.690349 -9.080629 17.351451 175.097112 -76.099074 3.609044 -11.651823 59.476580 26.070584 -63.340044 -15.940736 2.289874 6.123585 -9.621246 16.187241 152.518382 75.305704 -26.717835 5.100767 -50.208584 -19.258591 -48.019194 18.464975 -1.947112 12.717641 6.993237 -19.452469 
24.155828 0.000000 132.156709 0.000000 100.822245 0.000000 0.741391 91.659889 -1.860799 96.153443 -0.213073 179.509957 -174.966401 -15.234607 173.251519 -50.215362 1.752965 1.119816 77.047845 -5.878952 -18.096779 21.454553 0.003088 0.000001 169.548409 2.629388 -174.680217 -27.391525 4.932810 18.018459 77.665527 -11.630607 4.814901 21.454558 -0.003114 -0.000018 8.630269 1.977723 -1.325340 7.207593 4.033832 -2.526653 6.888979 4.018647 -2.550988 -1.914848 4.398747 13.470405 -9.651038 -9.076150 17.384735 175.141022 -76.051631 3.565161 -12.154294 59.388363 25.298615 -62.998952 -16.169660 2.292410 6.197106 -10.141876 15.525293 153.674897 75.052109 -25.554924 5.188152 -50.410576 -18.667813 -48.336073 18.545794 -1.962620 12.666015 7.404685 -19.411645 
23.910944 0.000000 133.181608 0.000000 100.872381 0.000000 0.824204 91.489021 -1.774053 96.306506 -0.044151 179.696414 -174.641039 -15.611726 173.526281 -51.260904 1.930544 2.134555 77.389635 -6.753766 -18.748642 21.454560 0.003094 0.000001 169.054080 2.691096 -174.718320 -27.558995 4.944120 18.136647 77.373564 -11.708771 4.828484 21.454555 -0.003113 -0.000016 8.598058 1.953141 -1.391678 7.141196 3.988090 -2.661969 6.822631 3.972095 -2.686026 -1.567921 4.402332 13.469679 -9.642895 -9.131231 17.398064 175.334801 -75.964954 3.369818 -12.610848 59.219375 24.683541 -62.675869 -16.363620 2.293236 6.232670 -10.665538 14.820959 154.750949 74.802472 -24.472728 5.277565 -50.607124 -18.144727 -48.621106 18.606156 -1.975805 12.623170 7.785231 -19.333977 
23.619327 0.000000 134.248943 0.000000 100.888990 0.000000 0.912097 91.298080 -1.665503 96.469987 0.138824 179.932888 -174.378582 -15.965200 173.742541 -52.061760 2.125999 3.076238 77.843822 -7.483769 -19.158462 21.454560 0.003095 0.000002 168.559110 2.774701 -174.659125 -27.729493 4.940428 18.214685 77.068042 -11.759177 4.839077 21.454553 -0.003108 -0.000014 8.570381 1.931797 -1.450593 7.084123 3.948404 -2.782060 6.765605 3.931685 -2.805867 -1.173957 4.419580 13.427553 -9.654443 -9.201154 17.380349 175.584984 -75.832396 3.118207 -12.987180 58.977425 24.221352 -62.367454 -16.537848 2.293302 6.261491 -11.113163 14.105725 155.663192 74.570089 -23.555702 5.377849 -50.810329 -17.737104 -48.841145 18.651138 -1.985895 12.572720 8.128868 -19.192036 
23.278986 0.000000 135.361027 0.000000 100.871015 0.000000 1.016867 91.098344 -1.528316 96.647164 0.303358 -179.806561 -174.153091 -16.228680 173.953396 -52.513360 2.270418 3.711846 78.001006 -7.943880 -19.224440 21.454548 0.003087 0.000002 168.089080 2.901128 -174.492963 -27.859576 4.910944 18.244202 76.751327 -11.794740 4.772800 21.454555 -0.003100 -0.000015 8.546876 1.905077 -1.500701 7.035841 3.897508 -2.884671 6.717380 3.880161 -2.908158 -0.736163 4.440657 13.353723 -9.664138 -9.237071 17.321511 175.793681 -75.653746 2.909818 -13.256547 58.676384 23.896712 -62.065223 -16.708473 2.293366 6.324838 -11.419290 13.394947 156.352909 74.367518 -22.863415 5.494199 -51.031358 -17.489191 -48.969585 18.687693 -1.992486 12.507412 8.426961 -18.988711 
22.892508 0.000000 136.518416 0.000000 100.818503 0.000000 1.129552 90.890808 -1.368485 96.818945 0.458649 -179.508807 -173.977417 -16.429603 174.177187 -52.541851 2.358333 4.084634 77.837026 -8.229913 -19.150841 21.454538 0.003081 0.000000 167.617432 3.051093 -174.250010 -27.947492 4.840500 18.238581 76.413150 -11.811517 4.677979 21.454558 -0.003095 -0.000017 8.525310 1.874952 -1.543037 6.991823 3.839350 -2.971839 6.673420 3.821473 -2.994966 -0.302477 4.478724 13.253587 -9.634383 -9.259562 17.232385 175.993034 -75.447809 2.711436 -13.472165 58.331419 23.697438 -61.720717 -16.874419 2.291570 6.391139 -11.636666 12.723370 156.913526 74.201709 -22.300403 5.597923 -51.264452 -17.421708 -49.004339 18.723997 -1.996044 12.457877 8.687967 -18.738161 
22.462433 0.000000 137.723314 0.000000 100.732909 0.000000 1.241833 90.671633 -1.195713 96.969836 0.619950 -179.173314 -173.850809 -16.593940 174.411323 -52.058709 2.397504 4.294662 77.473079 -8.448579 -19.134924 21.454541 0.003087 -0.000004 167.107107 3.202118 -173.988405 -28.013302 4.723378 18.217100 76.039060 -11.804666 4.621859 21.454558 -0.003100 -0.000017 8.505059 1.844555 -1.576020 6.950826 3.780076 -3.040254 6.632467 3.761794 -3.063024 0.087226 4.544919 13.133685 -9.545830 -9.294419 17.127888 176.247558 -75.236363 2.456668 -13.696785 57.962388 23.607424 -61.288215 -17.033152 2.285939 6.427765 -11.826476 12.119088 157.437013 74.072188 -21.772929 5.665062 -51.496996 -17.534979 -48.956459 18.762318 -1.997062 12.451356 8.911296 -18.470286 
21.991009 0.000000 138.978859 0.000000 100.615676 0.000000 1.361980 90.427940 -1.027623 97.119843 0.784175 -178.884504 -173.678105 -16.648895 174.604798 -50.891482 2.367965 4.396329 77.209509 -8.537626 -19.023701 21.454550 0.003096 -0.000007 166.531842 3.359303 -173.839338 -28.122719 4.595564 18.201001 75.610849 -11.785079 4.625465 21.454557 -0.003105 -0.000016 8.493848 1.811107 -1.585189 6.928822 3.713498 -3.060904 6.610492 3.695099 -3.083275 0.470260 4.619934 13.008728 -9.468423 -9.319423 17.018540 176.626971 -75.034706 2.073421 -13.953009 57.608047 23.589306 -60.773178 -17.193633 2.277320 6.464885 -11.961370 11.564232 157.878632 73.959613 -21.327921 5.724283 -51.706160 -17.771752 -48.865027 18.780138 -1.995262 12.463452 9.044256 -18.267799 
21.484269 0.000000 140.285384 0.000000 100.467988 0.000000 1.502311 90.160263 -0.880422 97.288665 0.920901 -178.725792 -173.367643 -16.492582 174.716598 -48.950624 2.269120 4.462884 77.123707 -8.467049 -18.578164 21.454552 0.003096 -0.000006 165.889080 3.552194 -173.895185 -28.307172 4.487582 18.191721 75.110040 -11.757022 4.682414 21.454557 -0.003103 -0.000016 8.498602 1.766653 -1.559150 6.940153 3.623257 -3.011260 6.621843 3.605152 -3.033085 0.882064 4.679939 12.893994 -9.471991 -9.304995 16.912314 177.172028 -74.848290 1.519486 -14.240618 57.302254 23.608912 -60.194135 -17.366426 2.267184 6.541269 -12.006643 11.034639 158.160977 73.847221 -21.045567 5.804718 -51.875317 -18.074144 -48.773916 18.757844 -1.990819 12.466365 9.039440 -18.205877 
